<svg xmlns="http://www.w3.org/2000/svg" viewBox="0 0 5143.87 1556.5"><defs><style>.cls-1,.cls-2,.cls-3{fill:#fff;}.cls-2{stroke:#fff;stroke-miterlimit:10;stroke-width:16px;}.cls-3{font-size:1099.21px;font-family:Raleway-ExtraBold, Raleway;font-weight:700;}.cls-4{letter-spacing:-0.11em;}</style></defs><title>logo</title><g id="Circles"><g id="Expanded"><path class="cls-1" d="M768.26,1466.09c-163.13,0-439.22-27.76-439.22-131.77,0-51.77,67.11-89.72,199.53-112.88a29.28,29.28,0,0,1,10.1,57.68c-117.54,20.53-149.1,49.28-151.12,55.84,7.91,24.48,145.68,72.56,380.72,72.56s372.81-48.08,380.72-73.85c-2-5.24-33.44-33.85-150.39-54.41a29.28,29.28,0,0,1,10.13-57.68c131.91,23.13,198.76,61.08,198.76,112.73C1207.48,1438.33,931.39,1466.09,768.26,1466.09Z" transform="translate(-65.5 -56)"/><path class="cls-1" d="M768.26,1612.5C311.82,1612.5,65.5,1476.72,65.5,1349c0-139.15,240.05-219.73,464.73-248.75a29.29,29.29,0,1,1,7.5,58.09C266.17,1193.39,124.06,1280.77,124.06,1349c0,97,264.56,205,644.2,205s644.2-108,644.2-205c0-68.2-142-155.54-413.52-190.62a29.28,29.28,0,0,1-25.3-32.8c2-16.08,16.84-27.09,32.8-25.3C1231,1129.26,1471,1209.85,1471,1349,1471,1476.72,1224.7,1612.5,768.26,1612.5Z" transform="translate(-65.5 -56)"/></g></g><g id="Location"><g id="Layer_21" data-name="Layer 21"><path class="cls-2" d="M776.61,1286a17.61,17.61,0,0,1-10.39-3.35c-19-14.27-475.79-438.21-475.79-743.09C290.43,276.91,503.34,64,766,64s475.56,212.91,475.56,475.56c0,304.89-435.52,728.83-454.54,743.09A17.61,17.61,0,0,1,776.61,1286ZM766,99.23c-243.19,0-440.33,197.14-440.33,440.33,0,262.26,383.32,655,451,706.81,67.64-51.78,429.71-444.55,429.71-706.81C1206.32,296.37,1009.18,99.23,766,99.23Z" transform="translate(-65.5 -56)"/></g></g><g id="Car"><path class="cls-1" d="M1005.12,493.43,961.66,369.27a84.6,84.6,0,0,0-79.75-56.57H655.09a84.57,84.57,0,0,0-79.73,56.55L531.9,493.41A84.56,84.56,0,0,0,494,564.06V713.9a42.23,42.23,0,0,0,84.46,0V687.27s111.51,5.51,190,5.51,190-5.51,190-5.51V713.9a42.23,42.23,0,0,0,84.46,0V564.06A84.58,84.58,0,0,0,1005.12,493.43ZM591,452.34l24.2-69.13a42.24,42.24,0,0,1,39.87-28.27H881.91a42.24,42.24,0,0,1,39.87,28.27L946,452.34a15.1,15.1,0,0,1-16.64,20c-41.41-6.69-94.64-11.82-160.84-11.82s-119.43,5.13-160.84,11.82A15.1,15.1,0,0,1,591,452.34Zm-2,156a31.67,31.67,0,1,1,31.67-31.67A31.68,31.68,0,0,1,589,608.32Zm242.83-21.12H705.15a21.12,21.12,0,1,1,0-42.23H831.85a21.12,21.12,0,1,1,0,42.23ZM948,608.32a31.67,31.67,0,1,1,31.67-31.67A31.68,31.68,0,0,1,948,608.32Z" transform="translate(-65.5 -56)"/><text class="cls-3" transform="translate(1405.5 1164.82)"><tspan class="cls-4">T</tspan><tspan x="561.7" y="0">axiGO</tspan></text></g></svg>